<svg width="80" height="80" viewBox="0 0 80 80" fill="none" xmlns="http://www.w3.org/2000/svg">
<path d="M40.9257 77C35.6829 77 30.8699 76.1405 26.4866 74.3356C22.1034 72.5308 18.3217 70.0383 15.1417 66.8583C11.9617 63.6783 9.46922 59.8966 7.66434 55.5134C5.85946 51.1301 5 46.3171 5 41.0743C5 35.7457 6.03136 30.7608 8.00813 26.1196C9.9849 21.4785 12.8211 17.439 16.3449 14.0012C19.8688 10.5633 24.0801 7.89898 28.8072 5.9222C33.5343 3.94543 38.6911 3 44.1916 3C48.3171 3 52.1847 3.60163 55.7085 4.71893C59.3182 5.92218 62.4123 7.55518 65.0766 9.6179C67.741 11.6806 69.8037 14.1731 71.3508 17.0093C72.8978 19.8455 73.6713 22.9396 73.6713 26.1196C73.6713 29.7294 72.554 32.6516 70.3194 35.0581C68.0848 37.4646 65.3345 38.6678 62.0685 38.6678C58.7166 38.6678 55.8804 37.4646 53.6458 35.144C51.4111 32.8235 50.2938 29.8153 50.2938 26.2915C50.2938 25.2602 50.3798 24.3148 50.6376 23.3693C50.8955 22.4239 51.2393 21.0488 51.669 19.2439C52.0987 17.6109 52.4425 16.4936 52.6144 15.6342C52.7863 14.8606 52.7863 14.0012 52.7863 13.0558C52.7863 10.6493 52.0128 8.58654 50.3798 7.0395C48.8328 5.49246 46.856 4.71893 44.4495 4.71893C42.3008 4.71893 40.41 5.40652 38.6051 6.78167C36.8002 8.15681 35.2532 10.0476 33.878 12.3682C32.5029 14.6888 31.4715 17.525 30.698 20.7909C29.9245 24.0569 29.4948 27.4948 29.4948 31.1905C29.4948 39.7851 31.6434 46.5749 35.9408 51.5598C40.2381 56.6307 45.9965 59.1231 53.302 59.1231C57.4274 59.1231 61.1231 58.3496 64.475 56.8026C67.8269 55.2555 71.0929 52.849 74.2729 49.583L75.9919 50.4425C68.1707 68.0616 56.396 77 40.9257 77Z" fill="#FF3465"/>
</svg>
