<svg width="80" height="80" viewBox="0 0 80 80" fill="none" xmlns="http://www.w3.org/2000/svg">
<path d="M60.2056 26.6822V17.3937C61.4331 16.8201 62.4723 15.9096 63.2024 14.7683C63.9326 13.6269 64.3235 12.3017 64.3297 10.9469V10.7335C64.3297 6.78324 61.1273 3.58086 57.177 3.58086H56.9637C55.0667 3.58086 53.2474 4.33444 51.906 5.67583C50.5646 7.01722 49.8111 8.83653 49.8111 10.7335V10.9469C49.8173 12.3017 50.2082 13.6269 50.9384 14.7683C51.6685 15.9096 52.7077 16.8201 53.9352 17.3937V26.6822C50.4074 27.2224 47.085 28.6851 44.3043 30.9222L18.8302 11.0812C19.0119 10.4254 19.1067 9.75123 19.1172 9.07441C19.1204 7.48035 18.6506 5.92117 17.7675 4.59409C16.8844 3.26701 15.6275 2.23165 14.1559 1.61898C12.6843 1.00631 11.064 0.843858 9.50002 1.15216C7.93605 1.46047 6.49865 2.22568 5.36963 3.35101C4.24062 4.47634 3.47071 5.91123 3.1573 7.47419C2.84388 9.03714 3.00105 10.6579 3.60891 12.1316C4.21676 13.6052 5.24799 14.8654 6.57218 15.7529C7.89636 16.6403 9.45401 17.1151 11.0481 17.1172C12.4427 17.1107 13.8111 16.7383 15.0168 16.0375L40.1012 35.5572C37.8478 38.9615 36.6722 42.9657 36.7276 47.0479C36.783 51.13 38.0669 55.1008 40.412 58.4426L32.7826 66.0746C32.1659 65.8774 31.5234 65.7727 30.8759 65.7639C29.5675 65.7649 28.2887 66.1538 27.2011 66.8814C26.1136 67.609 25.2662 68.6427 24.7659 69.8517C24.2657 71.0608 24.135 72.3911 24.3906 73.6743C24.6461 74.9576 25.2763 76.1364 26.2015 77.0616C27.1268 77.9868 28.3055 78.617 29.5888 78.8726C30.8721 79.1281 32.2023 78.9975 33.4114 78.4972C34.6205 77.997 35.6541 77.1495 36.3817 76.062C37.1094 74.9745 37.4982 73.6957 37.4993 72.3872C37.4908 71.7397 37.3861 71.0972 37.1885 70.4805L44.7362 62.9302C47.1975 64.825 50.0598 66.1314 53.1039 66.7491C56.148 67.3669 59.2931 67.2796 62.2983 66.4941C65.3035 65.7086 68.089 64.2456 70.4415 62.2173C72.7939 60.1889 74.6509 57.649 75.8701 54.7922C77.0893 51.9353 77.6384 48.8373 77.4754 45.7354C77.3123 42.6335 76.4414 39.6101 74.9294 36.8968C73.4174 34.1835 71.3044 31.8523 68.7523 30.0817C66.2001 28.3112 63.2766 27.1483 60.2056 26.6822ZM57.077 57.2312C55.6821 57.2696 54.2936 57.028 52.9937 56.5207C51.6937 56.0134 50.5086 55.2507 49.5085 54.2776C48.5083 53.3046 47.7132 52.1409 47.1704 50.8554C46.6275 49.5699 46.3478 48.1886 46.3478 46.7932C46.3478 45.3978 46.6275 44.0165 47.1704 42.731C47.7132 41.4455 48.5083 40.2818 49.5085 39.3088C50.5086 38.3357 51.6937 37.573 52.9937 37.0657C54.2936 36.5584 55.6821 36.3168 57.077 36.3552C59.7805 36.4499 62.3418 37.5901 64.2214 39.5356C66.101 41.4812 67.1521 44.0803 67.1535 46.7855C67.1549 49.4907 66.1063 52.0908 64.2287 54.0383C62.3511 55.9858 59.791 57.1285 57.0875 57.2259" fill="#FF7A59"/>
</svg>
