<svg width="80" height="80" viewBox="0 0 80 80" fill="none" xmlns="http://www.w3.org/2000/svg">
<path d="M45.9589 1C37.2841 1 32.2542 4.93645 29.8486 7.56075C29.557 5.22804 28.0262 2.23925 22.0486 2.23925H9V15.7981H14.3215C15.1963 15.7981 15.4879 16.0897 15.4879 16.9645V79H30.9421V54.0692C33.3477 56.2561 37.9402 59.3178 45.157 59.3178C60.2467 59.3178 70.8168 47.3626 70.8168 30.1589C70.8897 12.7364 60.8299 1 45.9589 1ZM42.8243 45.8318C34.514 45.8318 30.7234 37.886 30.7234 30.4505C30.7234 18.7869 37.0654 14.6318 43.043 14.6318C50.3327 14.6318 55.2897 20.9009 55.2897 30.3047C55.2168 41.0935 48.9477 45.8318 42.8243 45.8318Z" fill="#017737"/>
</svg>
