<svg width="80" height="80" viewBox="0 0 80 80" fill="none" xmlns="http://www.w3.org/2000/svg">
<mask id="mask0_40_3750" style="mask-type:luminance" maskUnits="userSpaceOnUse" x="1" y="13" width="78" height="55">
<path d="M1 13H79V67.4853H1V13Z" fill="#00A1E0"/>
</mask>
<g mask="url(#mask0_40_3750)">
<path fill-rule="evenodd" clip-rule="evenodd" d="M33.3873 18.9647C35.9051 16.3437 39.4094 14.7206 43.2807 14.7206C48.4424 14.7206 52.916 17.5882 55.3248 21.861C57.463 20.9052 59.779 20.4117 62.1211 20.4128C71.4123 20.4128 78.9542 28.0121 78.9542 37.3893C78.9542 46.7665 71.4123 54.3658 62.1211 54.3658C60.9855 54.3658 59.8786 54.2517 58.7947 54.036C56.6869 57.7926 52.6579 60.3448 48.0697 60.3448C46.2016 60.3485 44.3575 59.9248 42.6785 59.106C40.5421 64.1244 35.5667 67.6516 29.7741 67.6516C23.7233 67.6516 18.5902 63.8376 16.6116 58.4751C15.7309 58.661 14.8332 58.7544 13.9332 58.7539C6.73539 58.7539 0.914062 52.8465 0.914062 45.5914C0.914062 40.7164 3.53509 36.4722 7.42362 34.1781C6.59867 32.2777 6.17404 30.2278 6.1762 28.1561C6.1762 19.7825 12.9725 13.0149 21.346 13.0149C26.2497 13.0149 30.6372 15.352 33.3902 18.9796" fill="#00A1E0"/>
</g>
<path fill-rule="evenodd" clip-rule="evenodd" d="M12.2814 41.3325C12.2324 41.4604 12.2989 41.487 12.3147 41.5097C12.4612 41.6158 12.61 41.6926 12.7592 41.779C13.5564 42.2005 14.3077 42.3238 15.0934 42.3238C16.6936 42.3238 17.6886 41.4721 17.6886 40.1014V40.0744C17.6886 38.8069 16.5645 38.3452 15.515 38.0155L15.3776 37.971C14.5833 37.7135 13.8979 37.4892 13.8979 36.9673V36.9407C13.8979 36.4933 14.2994 36.1635 14.9188 36.1635C15.607 36.1635 16.4272 36.3927 16.9519 36.6826C16.9519 36.6826 17.1074 36.7829 17.1639 36.633C17.1945 36.5518 17.4621 35.8358 17.4908 35.7555C17.5212 35.6714 17.4678 35.6081 17.4131 35.5754C16.8109 35.2083 15.9792 34.9588 15.1189 34.9588L14.9592 34.9594C13.4938 34.9594 12.4701 35.8455 12.4701 37.113V37.1403C12.4701 38.4766 13.6 38.9125 14.6552 39.2136L14.825 39.2663C15.5935 39.5026 16.2588 39.7079 16.2588 40.2471V40.274C16.2588 40.7701 15.8258 41.14 15.1318 41.14C14.862 41.14 14.002 41.1355 13.07 40.5464C12.9573 40.4808 12.8931 40.4335 12.8062 40.3804C12.7603 40.3526 12.6456 40.3024 12.5957 40.4527L12.2803 41.3302M35.7089 41.3302C35.6599 41.4581 35.7264 41.4847 35.7428 41.5074C35.8887 41.6135 36.0381 41.6904 36.1873 41.7767C36.9845 42.1982 37.7358 42.3215 38.5215 42.3215C40.1217 42.3215 41.1167 41.4698 41.1167 40.0991V40.0721C41.1167 38.8046 39.9955 38.3429 38.9431 38.0132L38.8057 37.9687C38.0114 37.7112 37.326 37.487 37.326 36.965V36.9384C37.326 36.491 37.7275 36.1612 38.3469 36.1612C39.0351 36.1612 39.8524 36.3904 40.38 36.6803C40.38 36.6803 40.5355 36.7807 40.5923 36.6307C40.6227 36.5495 40.8905 35.8335 40.9163 35.7532C40.947 35.6692 40.8934 35.6058 40.8389 35.5731C40.2367 35.206 39.405 34.9565 38.5448 34.9565L38.3847 34.9571C36.9194 34.9571 35.8956 35.8432 35.8956 37.1107V37.138C35.8956 38.4743 37.0255 38.9102 38.0808 39.2113L38.2502 39.264C39.0216 39.5003 39.6841 39.7057 39.6841 40.2448V40.2717C39.6841 40.7678 39.2511 41.1378 38.5571 41.1378C38.2867 41.1378 37.4244 41.1332 36.4952 40.5442C36.3825 40.4785 36.3166 40.4332 36.2311 40.3781C36.2022 40.3598 36.0671 40.307 36.0209 40.4504L35.7055 41.3279M51.707 38.6438C51.707 39.418 51.5624 40.0288 51.2797 40.4619C50.9975 40.8891 50.5714 41.0985 49.9778 41.0985C49.3842 41.0985 48.9598 40.8909 48.6816 40.4647C48.4014 40.0346 48.2601 39.4209 48.2601 38.6466C48.2601 37.8724 48.4023 37.2644 48.6816 36.8371C48.9592 36.4127 49.3813 36.2091 49.9778 36.2091C50.5742 36.2091 50.9987 36.4147 51.2797 36.8371C51.5642 37.2644 51.707 37.8724 51.707 38.6466M53.0433 37.2099C52.9117 36.7655 52.7078 36.3755 52.4353 36.0485C52.1626 35.7216 51.8188 35.4578 51.4087 35.2685C51.0015 35.0778 50.5198 34.9818 49.9749 34.9818C49.4301 34.9818 48.9512 35.0784 48.5411 35.2685C48.1339 35.459 47.7869 35.7216 47.5145 36.0485C47.2426 36.3755 47.0384 36.7655 46.9065 37.2099C46.776 37.6516 46.7098 38.1333 46.7098 38.6466C46.7098 39.1599 46.776 39.6417 46.9065 40.0833C47.0376 40.5278 47.242 40.9178 47.5145 41.2447C47.7872 41.5716 48.1339 41.8326 48.5411 42.019C48.9512 42.2048 49.4329 42.2994 49.9749 42.2994C50.5169 42.2994 50.9987 42.2048 51.4059 42.019C51.8131 41.8332 52.1601 41.5716 52.4325 41.2447C52.7046 40.9178 52.9085 40.5278 53.0404 40.0833C53.1706 39.6417 53.2369 39.1599 53.2369 38.6466C53.2369 38.1362 53.1706 37.6516 53.0404 37.2099M64.0235 40.8805C63.9796 40.7506 63.8529 40.7997 63.8529 40.7997C63.6587 40.8739 63.4514 40.9428 63.2306 40.9772C63.0081 41.0122 62.7603 41.0296 62.4994 41.0296C61.8541 41.0296 61.338 40.8372 60.9709 40.4561C60.601 40.0747 60.3945 39.461 60.3974 38.6294C60.3994 37.8724 60.5823 37.3046 60.9107 36.8687C61.2347 36.4385 61.7337 36.2149 62.3933 36.2149C62.9438 36.2149 63.3654 36.2788 63.807 36.417C63.807 36.417 63.9117 36.4626 63.9619 36.3247C64.0791 36.0007 64.1657 35.7684 64.2916 35.4128C64.3272 35.311 64.24 35.268 64.2082 35.2556C64.035 35.188 63.6261 35.077 63.3163 35.0302C63.0267 34.9861 62.6912 34.9631 62.3127 34.9631C61.7506 34.9631 61.2516 35.0592 60.8244 35.2496C60.3971 35.4397 60.0358 35.7027 59.749 36.0296C59.4622 36.3565 59.2443 36.7465 59.098 37.191C58.9532 37.6326 58.8801 38.1173 58.8801 38.6306C58.8801 39.7375 59.1783 40.6351 59.7691 41.2917C60.3598 41.9513 61.2488 42.284 62.4073 42.284C63.0927 42.284 63.7952 42.1454 64.3 41.9456C64.3 41.9456 64.3963 41.8991 64.3544 41.7867L64.0247 40.8805M66.3618 37.8982C66.4257 37.468 66.5436 37.1096 66.7289 36.8314C67.0062 36.407 67.4286 36.1747 68.0222 36.1747C68.6158 36.1747 69.0086 36.4081 69.2897 36.8314C69.4761 37.111 69.5575 37.4824 69.5879 37.8982L66.3475 37.8976L66.3618 37.8982ZM70.864 36.9519C70.7502 36.5246 70.4683 36.0916 70.2847 35.8937C69.9922 35.5811 69.7083 35.3603 69.4244 35.2399C69.0146 35.0656 68.5736 34.9761 68.1283 34.9769C67.5633 34.9769 67.05 35.0724 66.6342 35.2665C66.2184 35.4621 65.8686 35.7282 65.5933 36.0609C65.3183 36.3935 65.1115 36.7864 64.9796 37.2366C64.8477 37.6811 64.7811 38.1686 64.7811 38.679C64.7811 39.2009 64.8503 39.6856 64.9862 40.1243C65.1235 40.5659 65.3446 40.9531 65.6429 41.2743C65.9411 41.5983 66.3225 41.8507 66.7813 42.0284C67.2373 42.2048 67.7907 42.2963 68.4245 42.2943C69.7321 42.29 70.4204 41.9989 70.7014 41.8412C70.7516 41.8131 70.7989 41.7646 70.7398 41.625L70.4445 40.7962C70.3992 40.6726 70.2741 40.7174 70.2741 40.7174C69.9501 40.8384 69.4913 41.0557 68.4159 41.0529C67.7133 41.0517 67.1943 40.8444 66.8674 40.5195C66.5347 40.1868 66.3684 39.7022 66.3426 39.014L70.8735 39.0174C70.8735 39.0174 70.9928 39.0163 71.0051 38.8998C71.01 38.8517 71.1602 37.9707 70.87 36.9527L70.864 36.9519ZM30.1434 37.8982C30.2074 37.468 30.3255 37.1096 30.5105 36.8314C30.7881 36.407 31.2102 36.1747 31.8038 36.1747C32.3974 36.1747 32.7902 36.4081 33.0713 36.8314C33.2574 37.111 33.3388 37.4824 33.3695 37.8982L30.1291 37.8976L30.1434 37.8982ZM34.6456 36.9519C34.5321 36.5246 34.2499 36.0916 34.0663 35.8937C33.7738 35.5811 33.49 35.3603 33.2061 35.2399C32.7962 35.0656 32.3553 34.9761 31.9099 34.9769C31.3449 34.9769 30.8316 35.0724 30.4158 35.2665C30 35.4621 29.6502 35.7282 29.3749 36.0609C29.1004 36.3935 28.8931 36.7864 28.7612 37.2366C28.6296 37.6811 28.5633 38.1686 28.5633 38.679C28.5633 39.2009 28.6319 39.6856 28.7687 40.1243C28.9057 40.5659 29.1271 40.9531 29.4225 41.2743C29.7207 41.5983 30.1021 41.8507 30.5609 42.0284C31.0169 42.2048 31.5675 42.2963 32.2041 42.2943C33.5117 42.29 34.2 41.9989 34.481 41.8412C34.5309 41.8131 34.5785 41.7646 34.5191 41.625L34.2238 40.7962C34.1782 40.6726 34.0532 40.7174 34.0532 40.7174C33.7291 40.8384 33.2703 41.0557 32.1949 41.0529C31.4952 41.0517 30.9733 40.8444 30.6464 40.5195C30.3137 40.1868 30.1474 39.7022 30.1216 39.014L34.6525 39.0174C34.6525 39.0174 34.7718 39.0163 34.7841 38.8998C34.789 38.8517 34.9393 37.9707 34.6488 36.9527L34.6456 36.9519ZM20.3647 40.8519C20.1872 40.7102 20.1626 40.6755 20.1038 40.5834C20.014 40.4449 19.9681 40.2479 19.9681 39.9956C19.9681 39.5998 20.1 39.3131 20.3725 39.1209C20.3696 39.1215 20.7625 38.7826 21.6859 38.794C22.0969 38.8014 22.5069 38.8364 22.9132 38.8987V40.9548H22.9138C22.9138 40.9548 22.3403 41.0784 21.6922 41.1174C20.7717 41.1727 20.3644 40.8524 20.3673 40.8533L20.3647 40.8519ZM22.1656 37.6688C21.9821 37.6553 21.7441 37.6487 21.4602 37.6487C21.073 37.6487 20.6974 37.6969 20.3475 37.7915C19.9948 37.8867 19.6765 38.0341 19.4041 38.2302C19.1309 38.4251 18.9062 38.6802 18.7474 38.9758C18.5871 39.2741 18.5053 39.6239 18.5053 40.0197C18.5053 40.4211 18.575 40.7681 18.7127 41.052C18.8476 41.3336 19.0506 41.5771 19.3034 41.7603C19.5549 41.9433 19.8655 42.0786 20.2239 42.1589C20.5795 42.2401 20.981 42.2811 21.4226 42.2811C21.8872 42.2811 22.3489 42.2421 22.7962 42.1667C23.1772 42.101 23.5568 42.0271 23.9347 41.9453C24.0855 41.9106 24.253 41.865 24.253 41.865C24.3648 41.8366 24.3562 41.717 24.3562 41.717L24.3536 37.5876C24.3536 36.6814 24.1116 36.0075 23.6338 35.5917C23.1578 35.1759 22.461 34.9666 21.5577 34.9666C21.2193 34.9666 20.6716 35.0125 20.3447 35.0781C20.3447 35.0781 19.3582 35.2697 18.951 35.5886C18.951 35.5886 18.8615 35.6436 18.9103 35.7684L19.2314 36.6287C19.2713 36.7402 19.38 36.7021 19.38 36.7021C19.38 36.7021 19.4141 36.6886 19.4543 36.6648C20.3232 36.1916 21.4243 36.206 21.4243 36.206C21.9118 36.206 22.2904 36.3049 22.5427 36.4985C22.7896 36.688 22.9155 36.9745 22.9155 37.5767V37.768C22.5284 37.7118 22.1699 37.6794 22.1699 37.6794L22.1656 37.6688ZM58.5847 35.3374C58.5913 35.3222 58.5947 35.306 58.5948 35.2895C58.5949 35.273 58.5916 35.2567 58.5853 35.2415C58.579 35.2263 58.5696 35.2125 58.5578 35.201C58.5461 35.1895 58.5321 35.1805 58.5168 35.1745C58.4396 35.1452 58.0551 35.0641 57.7597 35.0457C57.1919 35.0102 56.8765 35.1059 56.5926 35.2333C56.3121 35.3597 56.0018 35.563 55.8298 35.7982L55.8292 35.2476C55.8292 35.1719 55.7756 35.1108 55.6993 35.1108H54.5408C54.4656 35.1108 54.4112 35.1719 54.4112 35.2476V41.9866C54.4112 42.023 54.4257 42.0579 54.4515 42.0836C54.4772 42.1094 54.5121 42.1239 54.5485 42.1239H55.7357C55.7721 42.1239 55.807 42.1094 55.8327 42.0836C55.8584 42.0579 55.8728 42.023 55.8728 41.9866V38.6028C55.8728 38.1497 55.9227 37.6994 56.0222 37.4155C56.1203 37.1348 56.2536 36.9108 56.4179 36.7503C56.5747 36.5952 56.7665 36.4801 56.9771 36.4147C57.1748 36.358 57.3794 36.3292 57.5851 36.3293C57.8217 36.3293 58.0812 36.3901 58.0812 36.3901C58.1684 36.3998 58.2168 36.3465 58.2464 36.2679C58.3241 36.0612 58.5446 35.442 58.5876 35.3187" fill="#FFFFFE"/>
<path fill-rule="evenodd" clip-rule="evenodd" d="M47.4964 32.2269C47.3496 32.1826 47.2004 32.1471 47.0493 32.1208C46.8462 32.0869 46.6404 32.071 46.4345 32.0732C45.6164 32.0732 44.9714 32.3043 44.5186 32.7609C44.069 33.214 43.763 33.9042 43.6096 34.8124L43.5542 35.1189H42.5273C42.5273 35.1189 42.402 35.1138 42.3756 35.2506L42.207 36.1911C42.1953 36.2812 42.234 36.3374 42.3544 36.3368H43.3541L42.3398 41.9984C42.2604 42.4544 42.1695 42.8295 42.0688 43.1136C41.9696 43.3941 41.8727 43.6043 41.7534 43.7569C41.6378 43.9045 41.5282 44.0132 41.3393 44.0766C41.1833 44.1291 41.0038 44.1532 40.807 44.1532C40.6975 44.1532 40.5518 44.1348 40.4443 44.1133C40.3367 44.0921 40.2808 44.068 40.2002 44.0342C40.2002 44.0342 40.083 43.9894 40.0368 44.107C39.9992 44.2031 39.7328 44.9357 39.7013 45.0264C39.6692 45.1158 39.7142 45.1864 39.771 45.2067C39.904 45.2543 40.0029 45.2847 40.1842 45.3275C40.436 45.3868 40.6482 45.3906 40.8469 45.3906C41.2633 45.3906 41.6427 45.3321 41.9572 45.2185C42.2738 45.1041 42.5494 44.9048 42.7932 44.6349C43.0567 44.3439 43.2225 44.039 43.381 43.6232C43.5379 43.2111 43.6715 42.6996 43.7785 42.1034L44.7976 36.3368H46.2877C46.2877 36.3368 46.4133 36.3414 46.4394 36.2052L46.608 35.2646C46.6198 35.1746 46.5813 35.1184 46.4603 35.1189H45.0142C45.0213 35.0862 45.087 34.5775 45.253 34.0986C45.3239 33.8942 45.4572 33.7293 45.5702 33.616C45.6757 33.5081 45.8056 33.4273 45.949 33.3803C46.1062 33.3317 46.27 33.3081 46.4345 33.3103C46.5707 33.3103 46.7044 33.3267 46.8062 33.3479C46.9464 33.3777 47.0009 33.3935 47.0376 33.4044C47.185 33.4494 47.2048 33.4058 47.2337 33.3344L47.5796 32.3846C47.6151 32.2825 47.5285 32.2395 47.4964 32.2269ZM27.2869 42.0105C27.2869 42.0862 27.233 42.1478 27.1573 42.1478H25.9578C25.8818 42.1478 25.8279 42.0862 25.8279 42.0105V32.3557C25.8279 32.2802 25.8818 32.2192 25.9578 32.2192H27.1573C27.233 32.2192 27.2869 32.2802 27.2869 32.3557V42.0105Z" fill="#FFFFFE"/>
</svg>
