<svg width="24" height="24" viewBox="0 0 24 24" fill="none" xmlns="http://www.w3.org/2000/svg">
<path d="M22.5467 6.41028C22.2932 5.46779 21.5501 4.72483 20.6078 4.47105C18.8862 4 11.9998 4 11.9998 4C11.9998 4 5.11359 4 3.39202 4.45319C2.46779 4.7067 1.70657 5.46792 1.45305 6.41028C1 8.13172 1 11.7018 1 11.7018C1 11.7018 1 15.2898 1.45305 16.9932C1.70684 17.9356 2.44966 18.6786 3.39216 18.9323C5.13172 19.4035 12 19.4035 12 19.4035C12 19.4035 18.8862 19.4035 20.6078 18.9503C21.5502 18.6967 22.2932 17.9537 22.547 17.0114C22.9999 15.2898 22.9999 11.7199 22.9999 11.7199C22.9999 11.7199 23.018 8.13172 22.5467 6.41028ZM9.80727 14.9999V8.40363L15.5337 11.7018L9.80727 14.9999Z" fill="#D10000"/>
</svg>
